<?xml version="1.0" encoding="utf-8"?>
<!-- Generator: Adobe Illustrator 14.0.0, SVG Export Plug-In . SVG Version: 6.00 Build 43363)  -->
<!DOCTYPE svg PUBLIC "-//W3C//DTD SVG 1.1//EN" "http://www.w3.org/Graphics/SVG/1.1/DTD/svg11.dtd">
<svg version="1.1" id="Layer_1" xmlns="http://www.w3.org/2000/svg" xmlns:xlink="http://www.w3.org/1999/xlink" x="0px" y="0px"
	 width="37.544px" height="34.613px" viewBox="0 0 37.544 34.613" enable-background="new 0 0 37.544 34.613" xml:space="preserve">
<g>
	<path fill="#FFFFFF" d="M36.812,7.92H18.273c0.063-0.37,0.096-0.749,0.096-1.137c0-3.74-3.043-6.783-6.783-6.783
		S4.803,3.043,4.803,6.783c0,3.493,2.653,6.377,6.049,6.744v9.482H3.269c-0.406,0-0.734,0.329-0.734,0.734
		c0,0.404,0.328,0.733,0.734,0.733h7.583v9.401c0,0.405,0.329,0.734,0.733,0.734h9.974c0.405,0,0.733-0.329,0.733-0.734
		s-0.328-0.732-0.733-0.732H12.32V13.527c2.5-0.271,4.596-1.904,5.529-4.141h2.391v6.697c0,0.297,0.178,0.565,0.453,0.678
		c0.274,0.113,0.59,0.051,0.799-0.159l2.707-2.719l2.707,2.719c0.141,0.141,0.328,0.216,0.52,0.216c0.095,0,0.189-0.019,0.279-0.057
		c0.275-0.112,0.455-0.381,0.455-0.678V9.387h7.918v23.76H28.16c-0.406,0-0.734,0.327-0.734,0.732s0.328,0.734,0.734,0.734h8.652
		c0.405,0,0.732-0.329,0.732-0.734V8.653C37.544,8.248,37.217,7.92,36.812,7.92 M11.585,12.1c-2.932,0-5.316-2.385-5.316-5.316
		c0-2.931,2.385-5.316,5.316-5.316s5.316,2.386,5.316,5.316C16.902,9.715,14.517,12.1,11.585,12.1 M26.693,14.309l-1.975-1.98
		c-0.137-0.138-0.324-0.216-0.52-0.216s-0.381,0.078-0.52,0.216l-1.975,1.98V9.387h4.988V14.309z"/>
	<path fill="#FFFFFF" d="M32.589,28.437c0-0.404-0.328-0.732-0.732-0.732h-5.445c-0.404,0-0.734,0.328-0.734,0.732
		c0,0.405,0.33,0.733,0.734,0.733h5.445C32.261,29.17,32.589,28.842,32.589,28.437"/>
	<path fill="#FFFFFF" d="M31.857,25.649c0.404,0,0.732-0.327,0.732-0.732v-3.228c0-0.403-0.328-0.732-0.732-0.732H24.23
		c-0.405,0-0.732,0.329-0.732,0.732v3.228c0,0.405,0.327,0.732,0.732,0.732H31.857z M24.964,22.424h6.16v1.76h-6.16V22.424z"/>
	<path fill="#FFFFFF" d="M0.733,19.784h1.269c0.404,0,0.732-0.328,0.732-0.733s-0.328-0.734-0.732-0.734H0.733
		C0.328,18.316,0,18.646,0,19.051S0.328,19.784,0.733,19.784"/>
	<path fill="#FFFFFF" d="M7.846,19.784c0.405,0,0.733-0.328,0.733-0.733s-0.328-0.734-0.733-0.734H5.662
		c-0.404,0-0.732,0.329-0.732,0.734s0.328,0.733,0.732,0.733H7.846z"/>
	<path fill="#FFFFFF" d="M7.846,27.703H0.733C0.328,27.703,0,28.031,0,28.437s0.328,0.734,0.733,0.734h7.113
		c0.405,0,0.733-0.329,0.733-0.734S8.251,27.703,7.846,27.703"/>
	<path fill="#FFFFFF" d="M24.859,33.146c-0.193,0-0.382,0.077-0.518,0.215c-0.138,0.136-0.215,0.325-0.215,0.518
		c0,0.193,0.077,0.382,0.215,0.52c0.136,0.136,0.324,0.215,0.518,0.215s0.382-0.079,0.518-0.215c0.137-0.138,0.215-0.326,0.215-0.52
		c0-0.192-0.078-0.382-0.215-0.518C25.241,33.224,25.052,33.146,24.859,33.146"/>
	<path fill="#FFFFFF" d="M15.726,5.556c-0.145-0.2-0.308-0.393-0.486-0.57c-1.344-1.344-2.83-1.767-4.416-1.257
		c-0.2,0.063-0.311,0.279-0.246,0.479c0.063,0.199,0.277,0.31,0.479,0.246c0.953-0.307,1.84-0.191,2.744,0.365
		c-0.88-0.024-1.751,0.304-2.391,0.943c-0.461,0.462-0.769,1.044-0.889,1.684c-0.037,0.192,0.024,0.39,0.164,0.529l0.356,0.358
		H8.189c-0.129,0-0.236-0.105-0.236-0.235V5.242l0.324,0.324C8.389,5.68,8.539,5.74,8.699,5.74h0.002
		c0.242,0,0.406-0.163,0.459-0.217c0.281-0.282,0.601-0.517,0.949-0.7c0.09-0.047,0.155-0.127,0.186-0.224
		c0.031-0.098,0.021-0.2-0.025-0.289c-0.048-0.09-0.128-0.156-0.225-0.187c-0.098-0.03-0.2-0.021-0.29,0.026
		c-0.146,0.076-0.536,0.37-0.958,0.69C8.76,4.867,8.728,4.893,8.699,4.913l-0.25-0.251C8.234,4.448,7.927,4.387,7.646,4.503
		C7.367,4.619,7.193,4.881,7.193,5.184v2.914c0,0.55,0.446,0.997,0.996,0.997h2.912h0.008c0.291,0,0.553-0.181,0.668-0.46
		c0.117-0.28,0.061-0.581-0.146-0.789c-0.019-0.023-0.054-0.058-0.132-0.132c-0.055-0.055-0.155-0.15-0.215-0.213
		c0.104-0.454,0.33-0.868,0.664-1.201c0.869-0.87,2.263-0.965,3.238-0.22c0.15,0.115,0.353,0.102,0.492-0.033
		C15.818,5.911,15.837,5.709,15.726,5.556"/>
</g>
</svg>
