<?xml version="1.0" encoding="utf-8"?>
<!-- Generator: Adobe Illustrator 14.0.0, SVG Export Plug-In . SVG Version: 6.00 Build 43363)  -->
<!DOCTYPE svg PUBLIC "-//W3C//DTD SVG 1.1//EN" "http://www.w3.org/Graphics/SVG/1.1/DTD/svg11.dtd">
<svg version="1.1" id="Layer_1" xmlns="http://www.w3.org/2000/svg" xmlns:xlink="http://www.w3.org/1999/xlink" x="0px" y="0px"
	 width="37.545px" height="34.613px" viewBox="0 0 37.545 34.613" enable-background="new 0 0 37.545 34.613" xml:space="preserve">
<g>
	<path fill="#FFFFFF" d="M36.812,7.92H18.273c0.063-0.37,0.096-0.749,0.096-1.137c0-3.74-3.043-6.783-6.783-6.783
		C7.845,0,4.803,3.043,4.803,6.783c0,3.493,2.653,6.377,6.049,6.744v9.482H3.269c-0.405,0-0.733,0.329-0.733,0.734
		c0,0.404,0.328,0.733,0.733,0.733h7.583v9.401c0,0.405,0.329,0.734,0.734,0.734h9.973c0.405,0,0.733-0.329,0.733-0.734
		s-0.328-0.732-0.733-0.732h-9.239V13.527c2.5-0.271,4.597-1.904,5.529-4.141h2.391v6.697c0,0.297,0.179,0.565,0.453,0.678
		c0.274,0.113,0.59,0.051,0.8-0.159l2.707-2.719l2.707,2.719c0.14,0.141,0.328,0.216,0.519,0.216c0.095,0,0.19-0.019,0.28-0.057
		c0.275-0.112,0.454-0.381,0.454-0.678V9.387h7.919v23.76h-7.919c-0.405,0-0.734,0.327-0.734,0.732s0.329,0.734,0.734,0.734h8.652
		c0.405,0,0.733-0.329,0.733-0.734V8.653C37.545,8.248,37.217,7.92,36.812,7.92 M11.586,12.1c-2.932,0-5.317-2.385-5.317-5.316
		c0-2.931,2.386-5.316,5.317-5.316c2.931,0,5.316,2.386,5.316,5.316C16.902,9.715,14.517,12.1,11.586,12.1 M26.692,14.309
		l-1.975-1.98c-0.137-0.138-0.324-0.216-0.519-0.216c-0.195,0-0.382,0.078-0.521,0.216l-1.974,1.98V9.387h4.987V14.309z"/>
	<path fill="#FFFFFF" d="M32.59,28.437c0-0.404-0.328-0.732-0.733-0.732h-5.445c-0.404,0-0.733,0.328-0.733,0.732
		c0,0.405,0.329,0.733,0.733,0.733h5.445C32.262,29.17,32.59,28.842,32.59,28.437"/>
	<path fill="#FFFFFF" d="M31.856,25.649c0.405,0,0.733-0.327,0.733-0.732V21.69c0-0.404-0.328-0.733-0.733-0.733H24.23
		c-0.405,0-0.733,0.329-0.733,0.733v3.227c0,0.405,0.328,0.732,0.733,0.732H31.856z M24.963,22.424h6.16v1.76h-6.16V22.424z"/>
	<path fill="#FFFFFF" d="M0.732,19.784h1.269c0.404,0,0.732-0.328,0.732-0.733s-0.328-0.734-0.732-0.734H0.732
		C0.327,18.316,0,18.646,0,19.051S0.327,19.784,0.732,19.784"/>
	<path fill="#FFFFFF" d="M7.846,19.784c0.405,0,0.733-0.328,0.733-0.733s-0.328-0.734-0.733-0.734H5.662
		c-0.405,0-0.733,0.329-0.733,0.734s0.328,0.733,0.733,0.733H7.846z"/>
	<path fill="#FFFFFF" d="M7.846,27.703H0.732C0.328,27.703,0,28.031,0,28.437s0.328,0.734,0.732,0.734h7.113
		c0.405,0,0.733-0.329,0.733-0.734S8.251,27.703,7.846,27.703"/>
	<path fill="#FFFFFF" d="M24.858,33.146c-0.192,0-0.382,0.078-0.518,0.215c-0.137,0.136-0.215,0.325-0.215,0.518
		c0,0.193,0.078,0.382,0.215,0.52c0.136,0.136,0.325,0.215,0.518,0.215c0.193,0,0.382-0.079,0.519-0.215
		c0.137-0.138,0.215-0.326,0.215-0.52c0-0.192-0.078-0.382-0.215-0.518C25.24,33.225,25.052,33.146,24.858,33.146"/>
	<path fill="#FFFFFF" d="M15.623,5.024l-2.089-2.089c-0.217-0.217-0.527-0.277-0.81-0.161c-0.284,0.117-0.459,0.382-0.459,0.688
		v0.359c-0.684,0.015-1.34,0.172-1.953,0.467c-0.19,0.092-0.271,0.321-0.179,0.512c0.093,0.19,0.322,0.271,0.512,0.178
		c0.559-0.269,1.161-0.402,1.779-0.392c0.173-0.002,0.313-0.059,0.428-0.172c0.114-0.114,0.179-0.266,0.179-0.427V3.516l2.05,2.05
		c0.046,0.047,0.071,0.107,0.071,0.173c0,0.064-0.025,0.126-0.071,0.171l-2.05,2.051V7.438c0-0.198-0.097-0.383-0.26-0.494
		c-0.545-0.372-1.183-0.569-1.845-0.569c-0.917,0-1.777,0.385-2.389,1.039C8.742,6.586,9.15,5.994,9.831,5.51
		c0.172-0.123,0.212-0.362,0.09-0.534C9.862,4.893,9.773,4.837,9.673,4.82c-0.1-0.018-0.203,0.007-0.285,0.065
		C8.203,5.728,7.627,6.93,7.627,8.562c0,0.255,0.021,0.51,0.062,0.757C7.718,9.505,7.877,9.64,8.071,9.64
		C8.26,9.637,8.42,9.494,8.445,9.308c0.166-1.234,1.233-2.167,2.481-2.167c0.479,0,0.942,0.136,1.339,0.388v0.485
		c0,0.307,0.175,0.57,0.459,0.688c0.281,0.117,0.593,0.056,0.81-0.161l2.089-2.089c0.191-0.19,0.295-0.444,0.295-0.713
		C15.918,5.469,15.814,5.215,15.623,5.024"/>
</g>
</svg>
