<?xml version="1.0" encoding="utf-8"?>
<!-- Generator: Adobe Illustrator 14.0.0, SVG Export Plug-In . SVG Version: 6.00 Build 43363)  -->
<!DOCTYPE svg PUBLIC "-//W3C//DTD SVG 1.1//EN" "http://www.w3.org/Graphics/SVG/1.1/DTD/svg11.dtd">
<svg version="1.1" id="Layer_1" xmlns="http://www.w3.org/2000/svg" xmlns:xlink="http://www.w3.org/1999/xlink" x="0px" y="0px"
	 width="36.971px" height="30.473px" viewBox="0 0 36.971 30.473" enable-background="new 0 0 36.971 30.473" xml:space="preserve">
<path fill="#FFFFFF" d="M1.843,26.786C0.827,26.786,0,27.612,0,28.629s0.827,1.844,1.843,1.844H35.13
	c1.015,0,1.841-0.827,1.841-1.844s-0.826-1.843-1.841-1.843h-1.342V15.414c0-1.109-0.901-2.013-2.011-2.013h-4.916V2.012
	C26.862,0.902,25.959,0,24.851,0H12.992c-1.109,0-2.011,0.902-2.011,2.012v4.676c0,0.302,0.244,0.547,0.546,0.547
	c0.301,0,0.546-0.245,0.546-0.547V2.012c0-0.507,0.412-0.919,0.919-0.919h2.655v2.001c0,0.685,0.556,1.243,1.24,1.243h4.25
	c0.685,0,1.242-0.559,1.242-1.243V1.093h2.473c0.507,0,0.92,0.412,0.92,0.919v11.39h-5.852c-0.578,0-1.099,0.245-1.465,0.637
	c-0.367-0.392-0.888-0.637-1.465-0.637h-4.917l-0.001-4.147c0-0.302-0.245-0.547-0.546-0.547c-0.302,0.001-0.546,0.245-0.546,0.547
	l0.002,4.147H5.13c-1.109,0-2.011,0.903-2.011,2.013v11.372H1.843z M16.739,1.093h4.548v2.001c0,0.081-0.068,0.15-0.15,0.15h-4.25
	c-0.081,0-0.148-0.069-0.148-0.15V1.093z M13.424,16.496c0,0.079-0.068,0.147-0.15,0.147H9.026c-0.081,0-0.15-0.068-0.15-0.147
	v-2.001h4.548V16.496z M16.989,14.495c0.507,0,0.919,0.411,0.919,0.919v11.372H4.21V15.414c0-0.508,0.413-0.919,0.92-0.919h2.655
	v2.001c0,0.684,0.557,1.24,1.241,1.24h4.248c0.685,0,1.242-0.557,1.242-1.24v-2.001H16.989z M28.211,16.496
	c0,0.081-0.065,0.147-0.147,0.147h-4.25c-0.081,0-0.148-0.068-0.148-0.147v-2.001h4.546V16.496z M1.843,29.38
	c-0.414,0-0.752-0.337-0.752-0.751s0.338-0.75,0.752-0.75h23.102c0.302,0,0.546-0.245,0.546-0.547c0-0.303-0.244-0.546-0.546-0.546
	H19V15.414c0-0.508,0.412-0.919,0.919-0.919h2.654v2.001c0,0.684,0.557,1.24,1.24,1.24h4.25c0.684,0,1.239-0.557,1.239-1.24v-2.001
	h2.475c0.507,0,0.92,0.411,0.92,0.919v11.372h-5.252c-0.301,0-0.546,0.243-0.546,0.546c0,0.302,0.245,0.547,0.546,0.547h7.685
	c0.413,0,0.75,0.336,0.75,0.75s-0.337,0.751-0.75,0.751H1.843z"/>
</svg>
